<svg xmlns="http://www.w3.org/2000/svg" xml:space="preserve" viewBox="0 0 512 512"><path d="M0 0h512v512H0z" style="fill:#d0422a;fill-opacity:1;fill-rule:nonzero;stroke:none"/><path d="m263.2 262.02-12.355-9.595c-3.762-3.121-8.91-7.24-8.91-14.779 0-7.571 5.148-12.385 9.612-16.841 14.393-11.329 28.771-23.383 28.771-48.791 0-26.125-16.438-39.866-24.317-46.389h21.243l22.295-14.008h-67.548c-18.535 0-45.246 4.386-64.802 20.531-14.743 12.714-21.93 30.249-21.93 46.034 0 26.793 20.576 53.955 56.903 53.955 3.434 0 7.185-.337 10.962-.688-1.697 4.128-3.413 7.565-3.413 13.4 0 10.64 5.47 17.168 10.29 23.346-15.434 1.064-44.252 2.771-65.498 15.829-20.229 12.032-26.389 29.542-26.389 41.903 0 25.44 23.981 49.135 73.7 49.135 58.965 0 90.176-32.623 90.176-64.922.01-23.732-13.7-35.41-28.79-48.12m-44.909-39.51c-29.497 0-42.861-38.131-42.861-61.141 0-8.959 1.695-18.206 7.531-25.43 5.5-6.879 15.077-11.344 24.018-11.344 28.436 0 43.184 38.475 43.184 63.219 0 6.191-.682 17.161-8.566 25.095-5.516 5.499-14.742 9.601-23.306 9.601m.335 138.156c-36.679 0-60.332-17.547-60.332-41.943 0-24.391 21.93-32.642 29.479-35.373 14.389-4.844 32.909-5.519 35.999-5.519 3.428 0 5.143 0 7.871.345 26.078 18.555 37.398 27.807 37.398 45.375 0 21.271-17.494 37.115-50.415 37.115m131.154-86.963v-34.561h34.465v-17.155H349.78v-34.353h-16.968v34.353h-34.295v17.155h34.295v34.561z" style="fill:#fff" transform="translate(-132.968 -113.473)scale(1.51834)"/></svg>