<svg xmlns="http://www.w3.org/2000/svg" xml:space="preserve" viewBox="0 0 512 512"><rect width="512" height="512" rx="64" ry="64" style="fill:#4ea23b;fill-opacity:1;fill-rule:nonzero;stroke:none"/><path d="M256.145 56c-8.729 0-17.465.416-23.696 1.285C157.57 67.73 97.796 127.11 86.472 202.298c-5.932 39.386 2.412 81.064 23 114.811 13.312 21.822 32.447 41.64 53.282 55.184 25.446 16.54 52.747 25.479 84.608 27.712l8.354.589v27.176c0 14.945.248 27.425.562 27.74 1.127 1.126 3.008.497 11.648-3.83 34.213-17.135 65.304-39.663 91.088-66 38.354-39.177 60.046-82.337 67.339-133.955 1.564-11.067 1.326-38.182-.428-49.132-12.236-76.388-70.964-134.83-146.085-145.308-6.23-.869-14.967-1.285-23.695-1.285m-81.29 121.639h55.88c5.563 0 10.04 4.478 10.04 10.04v64.983c0 .763.023 1.294-.106 2.035-.542 10.492-1.891 14.407-5.007 20.884-7.152 14.866-21.785 25.763-37.914 28.248-2.918.45-3.867.229-5.355-1.258-1.619-1.62-1.82-2.795-1.82-11.192 0-10.692.09-10.81 8.113-13.415 4.2-1.364 9.16-4.466 11.432-7.149 2.51-2.962 5.293-10.058 5.302-13.52v-3.642c-13.283.115-27.135-.115-40.564 0-5.563 0-10.04-4.505-10.04-10.068V187.68c0-5.562 4.477-10.04 10.04-10.04m106.431 0h55.88c5.562 0 10.04 4.478 10.04 10.04v64.983c0 .763.023 1.294-.107 2.035-.542 10.492-1.89 14.407-5.007 20.884-7.151 14.866-21.785 25.763-37.913 28.248-2.918.45-3.868.229-5.355-1.258-1.62-1.62-1.82-2.795-1.82-11.192 0-10.692.09-10.81 8.112-13.415 4.201-1.364 9.161-4.466 11.433-7.149 2.509-2.962 5.293-10.058 5.301-13.52v-3.642c-13.282.115-27.135-.115-40.564 0-5.562 0-10.04-4.505-10.04-10.068V187.68c0-5.562 4.478-10.04 10.04-10.04" style="fill:#fff;fill-opacity:1"/></svg>