<svg xmlns="http://www.w3.org/2000/svg" xml:space="preserve" viewBox="0 0 512 512"><path fill="#0A5772" d="M492.761 442.732c0 34.171-27.702 61.872-61.873 61.872H81.145c-34.171 0-61.874-27.701-61.874-61.872V92.987c0-34.171 27.703-61.873 61.874-61.873h349.743c34.171 0 61.873 27.701 61.873 61.873z"/><path fill="#0083BE" d="M492.761 417.988c0 34.172-27.702 61.873-61.873 61.873H81.145c-34.171 0-61.874-27.701-61.874-61.873V68.243c0-34.17 27.703-61.872 61.874-61.872h349.743c34.171 0 61.873 27.702 61.873 61.872z"/><path fill="#0064A2" d="M492.761 417.988V256.431a310 310 0 0 0-6.077-6.001c-4.064-4.259-8.331-8.344-12.494-12.505-4.164-4.163-8.25-8.427-12.506-12.495-4.064-4.259-8.331-8.344-12.494-12.505l-50-50c-4.123-4.122-8.186-8.316-12.375-12.369-5.834-5.643-13.697-8.774-21.803-8.774H146.93c-7.753 0-15.321 2.914-21.051 8.142-6.441 5.876-10.178 14.323-10.178 23.043v139.39c0 5.676 1.182 11.18 3.985 16.162 2.677 4.755 6.76 8.547 10.665 12.289 4.071 4.254 8.331 8.344 12.494 12.505 8.335 8.332 16.666 16.669 25 25 16.67 16.664 33.331 33.337 50 50 16.67 16.664 33.331 33.337 50 50q.763.766 1.522 1.55h161.52c34.172-.002 61.874-27.703 61.874-61.875"/><path fill="#FFF" d="M365.15 141.781H146.883c-17.211 0-31.182 13.968-31.182 31.181v140.312c0 17.205 13.971 31.182 31.182 31.182H365.15c17.207 0 31.182-13.977 31.182-31.182V172.962c0-17.213-13.975-31.181-31.182-31.181M211.211 256.749l26.746 23.362c5.088 4.448 11.53 6.636 18.061 6.636 6.527 0 12.977-2.218 18.066-6.636l26.734-23.362-.621.617 60.875 60.857H150.958l60.868-60.857zm-72.053 49.687V193.702l60.132 52.609zm173.592-60.125 60.129-52.609v112.685zm60.129-78.318v3.504l-109.787 96.059c-3.789 3.311-10.357 3.311-14.146 0l-109.787-96.059v-3.504z"/></svg>