<svg xmlns="http://www.w3.org/2000/svg" xml:space="preserve" viewBox="0 0 512 512"><rect width="512" height="512" rx="64" ry="64" style="fill:#00abf1;fill-opacity:1;fill-rule:nonzero;stroke:none"/><path d="M679.333 552.19c-10.375 4.604-21.521 7.711-33.224 9.111 11.939-7.16 21.114-18.501 25.436-32.004a115.9 115.9 0 0 1-36.744 14.035c-10.547-11.246-25.588-18.269-42.223-18.269-31.953 0-57.859 25.906-57.859 57.855 0 4.533.513 8.946 1.501 13.186-48.085-2.419-90.71-25.446-119.245-60.454-4.981 8.545-7.833 18.48-7.833 29.089 0 20.072 10.21 37.777 25.735 48.152a57.7 57.7 0 0 1-26.204-7.234q-.004.358-.003.726c0 28.029 19.944 51.41 46.407 56.734a58.2 58.2 0 0 1-15.238 2.027c-3.733 0-7.354-.373-10.883-1.041 7.36 22.98 28.728 39.709 54.039 40.176-19.795 15.52-44.742 24.77-71.854 24.77-4.665 0-9.27-.275-13.799-.816 25.609 16.422 56.018 26.001 88.688 26.001 106.412 0 164.606-88.156 164.606-164.606 0-2.514-.058-5.007-.165-7.49a117.6 117.6 0 0 0 28.862-29.948" style="fill:#fff" transform="translate(-507.624 -651.332)scale(1.41848)"/></svg>